HIERARCHY
ROOT Hips
{
    OFFSET   0.000000   0.000000   0.000000
    CHANNELS 6 Xposition Yposition Zposition Zrotation Xrotation Yrotation
    JOINT Chest
    {
        OFFSET   0.000000   8.007240   0.000000
        CHANNELS 3 Zrotation Xrotation Yrotation
        JOINT Chest2
        {
            OFFSET   0.000000  22.077100   0.000000
            CHANNELS 3 Zrotation Xrotation Yrotation
            JOINT Neck
            {
                OFFSET   0.000000  23.254800   0.000000
                CHANNELS 3 Zrotation Xrotation Yrotation
                JOINT Head
                {
                    OFFSET   0.000000  14.370000   1.956600
                    CHANNELS 3 Zrotation Xrotation Yrotation
                    End Site
                    {
                        OFFSET   0.000000  19.566000   0.000000
                    }
                }
            }
            JOINT LeftCollar
            {
                OFFSET   3.911900  19.017000  -0.467064
                CHANNELS 3 Zrotation Xrotation Yrotation
                JOINT LeftShoulder
                {
                    OFFSET  10.383700   0.000000   0.000000
                    CHANNELS 3 Zrotation Xrotation Yrotation
                    JOINT LeftElbow
                    {
                        OFFSET  26.662100   0.001476   0.000517
                        CHANNELS 3 Zrotation Xrotation Yrotation
                        JOINT LeftWrist
                        {
                            OFFSET  28.869000  -0.000025  -0.000106
                            CHANNELS 3 Zrotation Xrotation Yrotation
                            JOINT LeftFinger0
                            {
                                OFFSET   2.044660  -2.323460   3.252850
                                CHANNELS 3 Zrotation Xrotation Yrotation
                                JOINT LeftFinger01
                                {
                                    OFFSET   3.088130   0.000000   0.000000
                                    CHANNELS 3 Zrotation Xrotation Yrotation
                                    JOINT LeftFinger02
                                    {
                                        OFFSET   2.639460   0.000000   0.000000
                                        CHANNELS 3 Zrotation Xrotation Yrotation
                                        End Site
                                        {
                                            OFFSET   2.582190   0.000000   0.000000
                                        }
                                    }
                                }
                            }
                            JOINT LeftFinger1
                            {
                                OFFSET   8.364480   0.000000   3.252850
                                CHANNELS 3 Zrotation Xrotation Yrotation
                                JOINT LeftFinger11
                                {
                                    OFFSET   4.646930   0.000000   0.000000
                                    CHANNELS 3 Zrotation Xrotation Yrotation
                                    JOINT LeftFinger12
                                    {
                                        OFFSET   2.323460   0.000000   0.000000
                                        CHANNELS 3 Zrotation Xrotation Yrotation
                                        End Site
                                        {
                                            OFFSET   2.273050   0.000000   0.000000
                                        }
                                    }
                                }
                            }
                            JOINT LeftFinger2
                            {
                                OFFSET   8.364490   0.000015   1.078090
                                CHANNELS 3 Zrotation Xrotation Yrotation
                                JOINT LeftFinger21
                                {
                                    OFFSET   5.111620   0.000000   0.000000
                                    CHANNELS 3 Zrotation Xrotation Yrotation
                                    JOINT LeftFinger22
                                    {
                                        OFFSET   2.788160   0.000016   0.000000
                                        CHANNELS 3 Zrotation Xrotation Yrotation
                                        End Site
                                        {
                                            OFFSET   2.727660   0.000000   0.000000
                                        }
                                    }
                                }
                            }
                            JOINT LeftFinger3
                            {
                                OFFSET   7.899780   0.000017  -1.078090
                                CHANNELS 3 Zrotation Xrotation Yrotation
                                JOINT LeftFinger31
                                {
                                    OFFSET   4.646930   0.000000   0.000000
                                    CHANNELS 3 Zrotation Xrotation Yrotation
                                    JOINT LeftFinger32
                                    {
                                        OFFSET   2.323470   0.000000   0.000000
                                        CHANNELS 3 Zrotation Xrotation Yrotation
                                        End Site
                                        {
                                            OFFSET   2.273050   0.000000   0.000000
                                        }
                                    }
                                }
                            }
                            JOINT LeftFinger4
                            {
                                OFFSET   7.435090   0.000000  -3.252850
                                CHANNELS 3 Zrotation Xrotation Yrotation
                                JOINT LeftFinger41
                                {
                                    OFFSET   3.717550   0.000000   0.000000
                                    CHANNELS 3 Zrotation Xrotation Yrotation
                                    JOINT LeftFinger42
                                    {
                                        OFFSET   1.858770   0.000000   0.000000
                                        CHANNELS 3 Zrotation Xrotation Yrotation
                                        End Site
                                        {
                                            OFFSET   1.818440   0.000000   0.000000
                                        }
                                    }
                                }
                            }
                        }
                    }
                }
            }
            JOINT RightCollar
            {
                OFFSET  -3.911900  19.017000  -0.467063
                CHANNELS 3 Zrotation Xrotation Yrotation
                JOINT RightShoulder
                {
                    OFFSET -10.383700   0.000019   0.000000
                    CHANNELS 3 Zrotation Xrotation Yrotation
                    JOINT RightElbow
                    {
                        OFFSET -26.662100   0.001175   0.000102
                        CHANNELS 3 Zrotation Xrotation Yrotation
                        JOINT RightWrist
                        {
                            OFFSET -28.869000   0.000016  -0.000079
                            CHANNELS 3 Zrotation Xrotation Yrotation
                            JOINT RightFinger0
                            {
                                OFFSET  -2.044660  -2.323490   3.252850
                                CHANNELS 3 Zrotation Xrotation Yrotation
                                JOINT RightFinger01
                                {
                                    OFFSET  -3.088140   0.000000   0.000000
                                    CHANNELS 3 Zrotation Xrotation Yrotation
                                    JOINT RightFinger02
                                    {
                                        OFFSET  -2.639460   0.000000   0.000000
                                        CHANNELS 3 Zrotation Xrotation Yrotation
                                        End Site
                                        {
                                            OFFSET  -2.582190   0.000000   0.000000
                                        }
                                    }
                                }
                            }
                            JOINT RightFinger1
                            {
                                OFFSET  -8.364480   0.000000   3.252850
                                CHANNELS 3 Zrotation Xrotation Yrotation
                                JOINT RightFinger11
                                {
                                    OFFSET  -4.646930   0.000000   0.000000
                                    CHANNELS 3 Zrotation Xrotation Yrotation
                                    JOINT RightFinger12
                                    {
                                        OFFSET  -2.323470   0.000000   0.000000
                                        CHANNELS 3 Zrotation Xrotation Yrotation
                                        End Site
                                        {
                                            OFFSET  -2.273050   0.000000   0.000000
                                        }
                                    }
                                }
                            }
                            JOINT RightFinger2
                            {
                                OFFSET  -8.364480   0.000000   1.078090
                                CHANNELS 3 Zrotation Xrotation Yrotation
                                JOINT RightFinger21
                                {
                                    OFFSET  -5.111620   0.000000   0.000000
                                    CHANNELS 3 Zrotation Xrotation Yrotation
                                    JOINT RightFinger22
                                    {
                                        OFFSET  -2.788160   0.000000   0.000000
                                        CHANNELS 3 Zrotation Xrotation Yrotation
                                        End Site
                                        {
                                            OFFSET  -2.727660   0.000000   0.000000
                                        }
                                    }
                                }
                            }
                            JOINT RightFinger3
                            {
                                OFFSET  -7.899780   0.000000  -1.078090
                                CHANNELS 3 Zrotation Xrotation Yrotation
                                JOINT RightFinger31
                                {
                                    OFFSET  -4.646930   0.000000   0.000000
                                    CHANNELS 3 Zrotation Xrotation Yrotation
                                    JOINT RightFinger32
                                    {
                                        OFFSET  -2.323470   0.000000   0.000000
                                        CHANNELS 3 Zrotation Xrotation Yrotation
                                        End Site
                                        {
                                            OFFSET  -2.273050   0.000000   0.000000
                                        }
                                    }
                                }
                            }
                            JOINT RightFinger4
                            {
                                OFFSET  -7.435090   0.000000  -3.252850
                                CHANNELS 3 Zrotation Xrotation Yrotation
                                JOINT RightFinger41
                                {
                                    OFFSET  -3.717550   0.000000   0.000000
                                    CHANNELS 3 Zrotation Xrotation Yrotation
                                    JOINT RightFinger42
                                    {
                                        OFFSET  -1.858770   0.000000   0.000000
                                        CHANNELS 3 Zrotation Xrotation Yrotation
                                        End Site
                                        {
                                            OFFSET  -1.818440   0.000000   0.000000
                                        }
                                    }
                                }
                            }
                        }
                    }
                }
            }
        }
    }
    JOINT LeftHip
    {
        OFFSET   9.783040   0.000000   0.000000
        CHANNELS 3 Zrotation Xrotation Yrotation
        JOINT LeftKnee
        {
            OFFSET   0.000032 -41.789100  -0.002222
            CHANNELS 3 Zrotation Xrotation Yrotation
            JOINT LeftAnkle
            {
                OFFSET   0.000087 -41.133200  -0.000135
                CHANNELS 3 Zrotation Xrotation Yrotation
                JOINT LeftToe
                {
                    OFFSET   0.000000  -6.358960  14.674500
                    CHANNELS 3 Zrotation Xrotation Yrotation
                    End Site
                    {
                        OFFSET   0.000000   0.000000   3.913200
                    }
                }
            }
        }
    }
    JOINT RightHip
    {
        OFFSET  -9.783040   0.000000   0.000000
        CHANNELS 3 Zrotation Xrotation Yrotation
        JOINT RightKnee
        {
            OFFSET   0.000047 -41.789100  -0.000896
            CHANNELS 3 Zrotation Xrotation Yrotation
            JOINT RightAnkle
            {
                OFFSET  -0.000117 -41.133300  -0.000248
                CHANNELS 3 Zrotation Xrotation Yrotation
                JOINT RightToe
                {
                    OFFSET   0.000000  -6.358970  14.674500
                    CHANNELS 3 Zrotation Xrotation Yrotation
                    End Site
                    {
                        OFFSET   0.000000   0.000000   3.913200
                    }
                }
            }
        }
    }
}
MOTION
Frames: 5
Frame Time:   0.016667
 -0.028507  89.510600  -2.690990  -2.445090  -6.397450   0.336361   0.507133   3.395000   0.205051   1.004730   6.791710   0.380933   0.788891  -0.013502   0.006478   1.295920  -0.032966   0.881672  -3.590530   0.282080  -0.547591 -70.774000  10.611300   2.387750  -1.257670  -2.068970 -13.185600  15.151300  -7.308780  -5.477600  40.088000  30.903300 -64.991300 -27.024300  -0.005822   0.001487  -8.518690  -0.000358   0.000120 -24.113400   2.757420  -6.134270 -19.850000  -0.000288  -0.004030 -13.895000  -0.000410  -0.002451 -27.108300  -0.398840   0.779284 -27.439500  -0.002804  -0.003686 -18.274700  -0.009413   0.001164 -26.569500  -0.391566   0.782995 -26.572100  -0.004814   0.001581 -17.697000  -0.002914   0.000000 -25.520100  -1.366500   2.859710 -38.331300  -0.011162  -0.002062 -25.528600   0.000861  -0.001332   7.897250  -0.143339   2.082610  70.929900   6.827940  -7.474020   1.598250  -6.787450   7.252160 -12.540000  -5.140790   4.920650 -46.186600  36.235200  75.930800  12.717700   0.003202  -0.009553   1.358840   0.004883  -0.004776  22.463200   5.355740  12.717200  18.864600  -0.001489   0.000988  13.205200   0.008435  -0.003707  23.189800   4.280560   9.883700  23.560100  -0.005447  -0.003305  15.682200  -0.005035  -0.001142  19.132900   3.127810   8.934630  19.375600  -0.000643  -0.000791  12.904200   0.000902  -0.003624  22.244600   2.152350   5.265570  33.514900  -0.004917  -0.007409  22.320900  -0.003818  -0.001457   4.692620   9.081830  -0.257759   0.811721   0.271585  15.222000  -2.925080  -2.748100  -2.140670  -0.000000   0.000000   0.000000   1.579990   7.908820  -2.305160   0.208550   0.467589 -21.155600   1.197730  -2.343580   1.798350  -0.000000   0.000000   0.000000
 -0.010171  89.510600  -2.677560  -2.442930  -6.435120   0.366458   0.510156   3.409860   0.205838   1.010700   6.821410   0.382207   0.809465  -0.013962   0.006465   1.329780  -0.032966   0.903706  -3.590680   0.271015  -0.541405 -70.700700  10.627700   2.433060  -1.263870  -1.962500 -13.235000  15.157900  -7.254280  -5.489190  40.096600  30.911000 -64.962900 -27.030900  -0.005821   0.001479  -8.518690  -0.000358   0.000125 -24.134700   2.744430  -6.099680 -19.866800  -0.000289  -0.004032 -13.906700  -0.000409  -0.002449 -27.106800  -0.414087   0.809100 -27.437800  -0.002802  -0.003683 -18.273600  -0.009411   0.001165 -26.555000  -0.406334   0.813052 -26.557800  -0.004809   0.001579 -17.687500  -0.002914  -0.000000 -25.496500  -1.372130   2.874550 -38.296300  -0.011163  -0.002059 -25.505300   0.000862  -0.001332   7.910010  -0.138801   2.099320  70.935100   6.798230  -7.488690   1.593950  -6.779910   7.261320 -12.543400  -5.140600   4.920780 -46.219400  36.264800  75.963100  12.697200   0.003204  -0.009566   1.348580   0.004883  -0.004784  22.457500   5.371040  12.757000  18.865200  -0.001482   0.000994  13.205600   0.008436  -0.003710  23.181100   4.292080   9.913820  23.553500  -0.005449  -0.003308  15.682200  -0.005039  -0.001137  19.134100   3.135080   8.955070  19.378600  -0.000643  -0.000786  12.906200   0.000902  -0.003619  22.255900   2.152430   5.260830  33.531700  -0.004916  -0.007418  22.332100  -0.003818  -0.001454   4.681370   9.119320  -0.262225   0.812092   0.274748  15.207100  -2.913670  -2.758500  -2.150960   0.000000   0.000000   0.000000   1.575550   7.966160  -2.312870   0.205135   0.458905 -21.173600   1.207640  -2.350460   1.791530   0.000000   0.000000   0.000000
  0.019820  89.510600  -2.655080  -2.440050  -6.496390   0.419277   0.515855   3.433430   0.207893   1.021950   6.868570   0.385790   0.843877  -0.014422   0.006446   1.386410  -0.032966   0.925740  -3.590920   0.252430  -0.532008 -70.579800  10.656600   2.496580  -1.263130  -1.813630 -13.284200  15.171600  -7.169710  -5.500410  40.108400  30.906600 -64.894500 -27.037400  -0.005816   0.001470  -8.518690  -0.000357   0.000139 -24.158900   2.717890  -6.034340 -19.883500  -0.000290  -0.004035 -13.918400  -0.000408  -0.002447 -27.101300  -0.443454   0.866627 -27.425800  -0.002797  -0.003675 -18.265600  -0.009406   0.001166 -26.522200  -0.434701   0.871076 -26.525400  -0.004796   0.001576 -17.665900  -0.002914   0.000000 -25.449900  -1.381660   2.900560 -38.227200  -0.011162  -0.002049 -25.459300   0.000865  -0.001334   7.930300  -0.130475   2.117530  70.942000   6.748610  -7.515960   1.586600  -6.762600   7.280250 -12.553900  -5.140400   4.920910 -46.252300  36.294400  75.995400  12.676600   0.003207  -0.009590   1.338320   0.004886  -0.004796  22.458200   5.387440  12.796900  18.869600  -0.001474   0.001009  13.208700   0.008443  -0.003718  23.172300   4.303590   9.943930  23.546800  -0.005453  -0.003312  15.682200  -0.005046  -0.001125  19.139800   3.142340   8.975510  19.386500  -0.000644  -0.000775  12.911400   0.000903  -0.003606  22.277600   2.152570   5.251670  33.564200  -0.004914  -0.007442  22.353700  -0.003815  -0.001444   4.665540   9.180160  -0.266709   0.811966   0.280086  15.174800  -2.895100  -2.775540  -2.167610   0.000000   0.000000  -0.000000   1.569710   8.058400  -2.320780   0.198958   0.446182 -21.206100   1.223690  -2.361090   1.776180  -0.000000   0.000000   0.000000
  0.042623  89.510500  -2.636720  -2.439960  -6.541620   0.467134   0.521811   3.449240   0.211454   1.033660   6.900220   0.392432   0.872243  -0.011704   0.006438   1.433000  -0.026128   0.921325  -3.584260   0.237047  -0.529088 -70.485300  10.689800   2.524110  -1.255180  -1.766530 -13.264400  15.185300  -7.103830  -5.487300  40.112000  30.864600 -64.781200 -27.025300  -0.005811   0.001480  -8.512620  -0.000351   0.000162 -24.153900   2.676780  -5.945950 -19.875000  -0.000283  -0.004036 -13.912400  -0.000409  -0.002449 -27.086900  -0.484683   0.947653 -27.371800  -0.002790  -0.003659 -18.229600  -0.009402   0.001168 -26.472400  -0.474328   0.952890 -26.476300  -0.004779   0.001573 -17.633200  -0.002912  -0.000000 -25.391100  -1.391680   2.930350 -38.139900  -0.011160  -0.002032 -25.401100   0.000868  -0.001340   7.945300  -0.120502   2.118920  70.943600   6.698720  -7.545550   1.578720  -6.731090   7.310170 -12.574200  -5.140450   4.920510 -46.259300  36.291100  75.986100  12.685300   0.003210  -0.009614   1.342680   0.004891  -0.004801  22.478500   5.388890  12.789800  18.885200  -0.001481   0.001030  13.219700   0.008455  -0.003730  23.185600   4.296500   9.921720  23.558600  -0.005460  -0.003316  15.690000  -0.005053  -0.001107  19.158300   3.129650   8.931820  19.403100  -0.000646  -0.000758  12.922400   0.000903  -0.003586  22.308300   2.152760   5.238750  33.610000  -0.004913  -0.007480  22.384200  -0.003811  -0.001428   4.659440   9.224350  -0.260302   0.807103   0.285608  15.131700  -2.881790  -2.789490  -2.179920  -0.000000   0.000000   0.000000   1.569010   8.123070  -2.316750   0.190772   0.441768 -21.239600   1.235910  -2.367830   1.755460  -0.000000   0.000000  -0.000000
  0.064726  89.510500  -2.618550  -2.439560  -6.586300   0.518117   0.528531   3.464760   0.215200   1.046880   6.931320   0.399398   0.899585  -0.007116   0.006425   1.477860  -0.014942   0.910990  -3.570480   0.221921  -0.521899 -70.392200  10.710700   2.533430  -1.245500  -1.729160 -13.219500  15.209700  -7.068180  -5.462300  40.114800  30.805600 -64.671500 -26.999100  -0.005799   0.001489  -8.499530  -0.000346   0.000190 -24.138900   2.649040  -5.888310 -19.861500  -0.000272  -0.004036 -13.903000  -0.000410  -0.002451 -27.076400  -0.511792   1.000970 -27.328000  -0.002779  -0.003638 -18.200400  -0.009396   0.001169 -26.423600  -0.500355   1.006740 -26.427900  -0.004755   0.001569 -17.601000  -0.002910  -0.000000 -25.336100  -1.397780   2.948990 -38.058100  -0.011156  -0.002008 -25.346700   0.000870  -0.001347   7.957660  -0.113037   2.119540  70.944700   6.668580  -7.574740   1.573820  -6.709340   7.330320 -12.596400  -5.140810   4.918170 -46.267600  36.284600  75.969900  12.701300   0.003216  -0.009643   1.350640   0.004900  -0.004810  22.502900   5.389410  12.774200  18.905400  -0.001493   0.001057  13.233800   0.008471  -0.003747  23.205300   4.286530   9.889990  23.576300  -0.005470  -0.003321  15.701800  -0.005063  -0.001082  19.172400   3.116950   8.888130  19.414700  -0.000649  -0.000735  12.930200   0.000903  -0.003560  22.328400   2.152910   5.230250  33.640100  -0.004912  -0.007527  22.404300  -0.003805  -0.001407   4.655230   9.268690  -0.253894   0.798399   0.288988  15.082900  -2.867720  -2.801220  -2.191490   0.000000   0.000000   0.000000   1.569490   8.188130  -2.312730   0.180871   0.435266 -21.272100   1.246890  -2.373560   1.730130   0.000000   0.000000   0.000000
